<svg width="20" height="21" viewBox="0 0 20 21" fill="none" xmlns="http://www.w3.org/2000/svg">
<path d="M9.99798 2.51721C7.49132 2.51721 5.86632 4.19971 3.94465 4.81305C3.16298 5.06305 2.77215 5.18721 2.61382 5.36305C2.45548 5.53805 2.40965 5.79555 2.31715 6.30888C1.32548 11.8055 3.49215 16.8872 8.65882 18.8655C9.21298 19.078 9.49048 19.1839 10.0005 19.1839C10.5105 19.1839 10.7888 19.0772 11.3438 18.8647C16.5096 16.8872 18.6738 11.8055 17.6822 6.30888C17.5897 5.79555 17.543 5.53805 17.3846 5.36221C17.2263 5.18638 16.8363 5.06221 16.0547 4.81305C14.1322 4.19971 12.5046 2.51721 9.99798 2.51721Z" stroke="#FF474E" stroke-width="1.5" stroke-linecap="round" stroke-linejoin="round"/>
<path d="M8.33301 11.2673C8.33301 11.2673 8.74967 11.2673 9.16634 12.1006C9.16634 12.1006 10.4897 10.0173 11.6663 9.60059" stroke="#FF474E" stroke-width="1.5" stroke-linecap="round" stroke-linejoin="round"/>
<path d="M14.1663 10.8505C14.1663 11.9556 13.7274 13.0154 12.946 13.7968C12.1646 14.5782 11.1047 15.0172 9.99967 15.0172C8.89461 15.0172 7.8348 14.5782 7.0534 13.7968C6.27199 13.0154 5.83301 11.9556 5.83301 10.8505C5.83301 9.74544 6.27199 8.68563 7.0534 7.90423C7.8348 7.12282 8.89461 6.68384 9.99967 6.68384C11.1047 6.68384 12.1646 7.12282 12.946 7.90423C13.7274 8.68563 14.1663 9.74544 14.1663 10.8505Z" stroke="#FF474E" stroke-width="1.5" stroke-linecap="round" stroke-linejoin="round"/>
</svg>
