<svg width="16" height="18" viewBox="0 0 16 18" fill="none" xmlns="http://www.w3.org/2000/svg">
<path d="M5 1.5H2.66667C2.31305 1.5 1.97391 1.64048 1.72386 1.89052C1.47381 2.14057 1.33333 2.47971 1.33333 2.83333V6.83333C1.33333 7.00843 1.36782 7.18181 1.43483 7.34358C1.50183 7.50535 1.60005 7.65233 1.72386 7.77614C1.84767 7.89995 1.99466 7.99817 2.15642 8.06517C2.31819 8.13218 2.49157 8.16667 2.66667 8.16667H5C5.1751 8.16667 5.34848 8.13218 5.51025 8.06517C5.67201 7.99817 5.819 7.89995 5.94281 7.77614C6.06662 7.65233 6.16483 7.50535 6.23184 7.34358C6.29885 7.18181 6.33333 7.00843 6.33333 6.83333V2.83333C6.33333 2.47971 6.19286 2.14057 5.94281 1.89052C5.69276 1.64048 5.35362 1.5 5 1.5ZM5 11.5H2.66667C2.31305 11.5 1.97391 11.6405 1.72386 11.8905C1.47381 12.1406 1.33333 12.4797 1.33333 12.8333V15.1667C1.33333 15.5203 1.47381 15.8594 1.72386 16.1095C1.97391 16.3595 2.31305 16.5 2.66667 16.5H5C5.35362 16.5 5.69276 16.3595 5.94281 16.1095C6.19286 15.8594 6.33333 15.5203 6.33333 15.1667V12.8333C6.33333 12.4797 6.19286 12.1406 5.94281 11.8905C5.69276 11.6405 5.35362 11.5 5 11.5ZM13.3333 1.5H11C10.6464 1.5 10.3072 1.64048 10.0572 1.89052C9.80714 2.14057 9.66667 2.47971 9.66667 2.83333V5.16667C9.66667 5.52029 9.80714 5.85943 10.0572 6.10948C10.3072 6.35952 10.6464 6.5 11 6.5H13.3333C13.687 6.5 14.0261 6.35952 14.2761 6.10948C14.5262 5.85943 14.6667 5.52029 14.6667 5.16667V2.83333C14.6667 2.47971 14.5262 2.14057 14.2761 1.89052C14.0261 1.64048 13.687 1.5 13.3333 1.5ZM13.3333 9.83333H11C10.6464 9.83333 10.3072 9.97381 10.0572 10.2239C9.80714 10.4739 9.66667 10.813 9.66667 11.1667V15.1667C9.66667 15.5203 9.80714 15.8594 10.0572 16.1095C10.3072 16.3595 10.6464 16.5 11 16.5H13.3333C13.687 16.5 14.0261 16.3595 14.2761 16.1095C14.5262 15.8594 14.6667 15.5203 14.6667 15.1667V11.1667C14.6667 10.813 14.5262 10.4739 14.2761 10.2239C14.0261 9.97381 13.687 9.83333 13.3333 9.83333Z" stroke="white" stroke-width="1.5" stroke-miterlimit="10" stroke-linejoin="round"/>
</svg>
