<svg width="17" height="16" viewBox="0 0 17 16" fill="none" xmlns="http://www.w3.org/2000/svg">
<g clip-path="url(#clip0_57_474)">
<path d="M6.73928 7.5C6.73928 7.36739 6.68597 7.24021 6.59106 7.14645C6.49615 7.05268 6.36744 7 6.23322 7H5.22109C5.08687 7 4.95816 7.05268 4.86325 7.14645C4.76834 7.24021 4.71503 7.36739 4.71503 7.5V8.5C4.71503 8.63261 4.76834 8.75979 4.86325 8.85355C4.95816 8.94732 5.08687 9 5.22109 9H6.23322C6.36744 9 6.49615 8.94732 6.59106 8.85355C6.68597 8.75979 6.73928 8.63261 6.73928 8.5V7.5ZM6.73928 10.5C6.73928 10.3674 6.68597 10.2402 6.59106 10.1464C6.49615 10.0527 6.36744 10 6.23322 10H5.22109C5.08687 10 4.95816 10.0527 4.86325 10.1464C4.76834 10.2402 4.71503 10.3674 4.71503 10.5V11.5C4.71503 11.6326 4.76834 11.7598 4.86325 11.8536C4.95816 11.9473 5.08687 12 5.22109 12H6.23322C6.36744 12 6.49615 11.9473 6.59106 11.8536C6.68597 11.7598 6.73928 11.6326 6.73928 11.5V10.5ZM8.25747 7H9.2696C9.40382 7 9.53254 7.05268 9.62744 7.14645C9.72235 7.24021 9.77567 7.36739 9.77567 7.5V8.5C9.77567 8.63261 9.72235 8.75979 9.62744 8.85355C9.53254 8.94732 9.40382 9 9.2696 9H8.25747C8.12326 9 7.99454 8.94732 7.89963 8.85355C7.80473 8.75979 7.75141 8.63261 7.75141 8.5V7.5C7.75141 7.36739 7.80473 7.24021 7.89963 7.14645C7.99454 7.05268 8.12326 7 8.25747 7ZM9.2696 10H8.25747C8.12326 10 7.99454 10.0527 7.89963 10.1464C7.80473 10.2402 7.75141 10.3674 7.75141 10.5V11.5C7.75141 11.6326 7.80473 11.7598 7.89963 11.8536C7.99454 11.9473 8.12326 12 8.25747 12H9.2696C9.40382 12 9.53254 11.9473 9.62744 11.8536C9.72235 11.7598 9.77567 11.6326 9.77567 11.5V10.5C9.77567 10.3674 9.72235 10.2402 9.62744 10.1464C9.53254 10.0527 9.40382 10 9.2696 10ZM10.7878 7.5C10.7878 7.36739 10.8411 7.24021 10.936 7.14645C11.0309 7.05268 11.1596 7 11.2939 7H12.306C12.4402 7 12.5689 7.05268 12.6638 7.14645C12.7587 7.24021 12.812 7.36739 12.812 7.5V8.5C12.812 8.63261 12.7587 8.75979 12.6638 8.85355C12.5689 8.94732 12.4402 9 12.306 9H11.2939C11.1596 9 11.0309 8.94732 10.936 8.85355C10.8411 8.75979 10.7878 8.63261 10.7878 8.5V7.5Z" fill="white"/>
<path fill-rule="evenodd" clip-rule="evenodd" d="M5.2211 0C5.35531 0 5.48403 0.0526784 5.57894 0.146447C5.67384 0.240215 5.72716 0.367392 5.72716 0.5V1H11.7999V0.5C11.7999 0.367392 11.8532 0.240215 11.9482 0.146447C12.0431 0.0526784 12.1718 0 12.306 0C12.4402 0 12.5689 0.0526784 12.6638 0.146447C12.7587 0.240215 12.8121 0.367392 12.8121 0.5V1C14.4922 1 15.8484 2.34 15.8484 4V12C15.8484 13.66 14.4922 15 12.8121 15H4.71503C3.0349 15 1.67865 13.66 1.67865 12V4C1.67865 2.34 3.0349 1 4.71503 1V0.5C4.71503 0.367392 4.76835 0.240215 4.86326 0.146447C4.95816 0.0526784 5.08688 0 5.2211 0ZM14.8363 4V5H2.69078V4C2.69078 2.9 3.59663 2 4.71503 2V2.5C4.71503 2.63261 4.76835 2.75979 4.86326 2.85355C4.95816 2.94732 5.08688 3 5.2211 3C5.35531 3 5.48403 2.94732 5.57894 2.85355C5.67384 2.75979 5.72716 2.63261 5.72716 2.5V2H11.7999V2.5C11.7999 2.63261 11.8532 2.75979 11.9482 2.85355C12.0431 2.94732 12.1718 3 12.306 3C12.4402 3 12.5689 2.94732 12.6638 2.85355C12.7587 2.75979 12.8121 2.63261 12.8121 2.5V2C13.9254 2 14.8363 2.895 14.8363 4ZM2.69078 12V6H14.8363V12C14.8363 13.1 13.9305 14 12.8121 14H4.71503C3.60169 14 2.69078 13.105 2.69078 12Z" fill="white" stroke="white" stroke-width="0.5"/>
</g>
<defs>
<clipPath id="clip0_57_474">
<rect width="16.194" height="16" fill="white" transform="translate(0.666504)"/>
</clipPath>
</defs>
</svg>
