<svg width="16" height="18" viewBox="0 0 16 18" fill="none" xmlns="http://www.w3.org/2000/svg">
<path d="M9.43104 1.00342V4.11322C9.43104 4.53438 9.58777 4.9391 9.8673 5.23746C10.1475 5.53613 10.5269 5.70374 10.9224 5.70358H14.2549" stroke="white" stroke-width="1.4" stroke-linecap="round" stroke-linejoin="round"/>
<path d="M14.33 6.03225V13.4418C14.314 13.9265 14.2085 14.4029 14.0196 14.8438C13.8308 15.2846 13.5623 15.681 13.2297 16.0103C12.8968 16.341 12.5062 16.5983 12.0804 16.7675C11.6546 16.9366 11.2018 17.0143 10.7479 16.9961H4.61607C4.1594 17.0185 3.70311 16.9441 3.27335 16.7773C2.84359 16.6105 2.44881 16.3545 2.11164 16.0241C1.77578 15.694 1.50456 15.2957 1.31372 14.8524C1.12289 14.4091 1.01625 13.9296 1 13.4418V4.55691C1.01604 4.07225 1.12152 3.59579 1.31037 3.15497C1.49922 2.71416 1.7677 2.3177 2.10033 1.98847C2.43324 1.6577 2.82377 1.40039 3.24961 1.23123C3.67544 1.06207 4.12824 0.984382 4.58213 1.0026H9.19835C9.90305 0.999934 10.5833 1.27904 11.1058 1.78524L13.4971 4.13921C13.7522 4.3745 13.9583 4.66466 14.1018 4.99082C14.2453 5.31697 14.3231 5.67181 14.33 6.03225Z" stroke="white" stroke-width="1.4" stroke-linecap="round" stroke-linejoin="round"/>
<path d="M4.72431 10.4548L6.24231 12.0806C6.29566 12.1384 6.35919 12.1843 6.42923 12.2156C6.49926 12.2469 6.5744 12.2631 6.65029 12.2631C6.72619 12.2631 6.80133 12.2469 6.87136 12.2156C6.94139 12.1843 7.00492 12.1384 7.05827 12.0806L10.1177 8.80566" stroke="white" stroke-width="1.4" stroke-linecap="round" stroke-linejoin="round"/>
</svg>
