<svg width="16" height="16" viewBox="0 0 16 16" fill="none" xmlns="http://www.w3.org/2000/svg">
<path d="M1.33333 5.71275C1.33333 4.9153 1.65492 4.42659 2.32042 4.05623L5.05991 2.53167C6.4954 1.73281 7.21313 1.33337 8 1.33337C8.78687 1.33337 9.5046 1.73281 10.9401 2.53167L13.6796 4.05623C14.3451 4.42659 14.6667 4.91531 14.6667 5.71275C14.6667 5.92899 14.6667 6.03711 14.6431 6.126C14.519 6.59301 14.0958 6.66671 13.6871 6.66671H2.31285C1.90418 6.66671 1.48101 6.593 1.35695 6.126C1.33333 6.03711 1.33333 5.92899 1.33333 5.71275Z" stroke="white" stroke-width="1.4"/>
<path d="M7.99726 4.66663H8.00626" stroke="white" stroke-width="1.4" stroke-linecap="round" stroke-linejoin="round"/>
<path d="M2.66667 6.66663V12.3333M5.33333 6.66663V12.3333" stroke="white" stroke-width="1.4"/>
<path d="M10.6667 6.66663V12.3333M13.3333 6.66663V12.3333" stroke="white" stroke-width="1.4"/>
<path d="M12.6667 12.3334H3.33333C2.22877 12.3334 1.33333 13.2288 1.33333 14.3334C1.33333 14.5174 1.48257 14.6667 1.66667 14.6667H14.3333C14.5174 14.6667 14.6667 14.5174 14.6667 14.3334C14.6667 13.2288 13.7713 12.3334 12.6667 12.3334Z" stroke="white" stroke-width="1.4"/>
</svg>
