<svg width="19" height="19" viewBox="0 0 19 19" fill="none" xmlns="http://www.w3.org/2000/svg">
<path d="M2.50661 16.636L5.77393 13.3686M5.77393 13.3686L8.21258 10.9292M5.77393 13.3686C5.43712 13.1594 5.12321 12.9287 4.83299 12.6851C3.57738 11.6326 2.75024 10.3503 2.36073 9.66064C2.27672 9.51171 2.23395 9.43686 2.20951 9.32077C2.19172 9.21766 2.19172 9.11227 2.20951 9.00916C2.23395 8.89231 2.27595 8.81822 2.35997 8.66853C3.09469 7.36939 5.37983 3.96383 9.16498 3.96383C10.4763 3.96383 11.609 4.3732 12.5568 4.96128C12.8936 5.16979 13.2075 5.40044 13.4977 5.64408M16.636 2.50659L13.4977 5.64408M13.4977 5.64408L10.9292 8.21257M10.9292 8.21257C10.743 7.86899 10.461 7.58693 10.1174 7.4007C9.88569 7.27563 9.63164 7.19742 9.36972 7.17053C9.10781 7.14364 8.84317 7.16861 8.5909 7.244C8.33864 7.31939 8.10369 7.44372 7.89948 7.60991C7.69527 7.7761 7.52579 7.98088 7.40072 8.21257C7.27565 8.44425 7.19743 8.69831 7.17055 8.96022C7.14366 9.22213 7.16862 9.48677 7.24401 9.73904C7.3194 9.9913 7.44374 10.2263 7.60993 10.4305C7.77611 10.6347 7.9809 10.8042 8.21258 10.9292M10.9292 8.21257L8.21258 10.9292M15.0764 7.31593C15.4797 7.84597 15.7783 8.33018 15.97 8.67005C16.054 8.81822 16.096 8.89307 16.1205 9.00916C16.138 9.0947 16.138 9.23523 16.1205 9.32077C16.096 9.43686 16.054 9.51171 15.97 9.65987C15.2368 10.9598 12.9532 14.3661 9.16498 14.3661C8.80143 14.3651 8.45164 14.3353 8.11559 14.2767" stroke="white" stroke-width="1.5" stroke-linecap="round" stroke-linejoin="round"/>
</svg>
