<svg width="20" height="20" viewBox="0 0 20 20" fill="none" xmlns="http://www.w3.org/2000/svg">
<path fill-rule="evenodd" clip-rule="evenodd" d="M10 2.29163C7.95562 2.29163 5.99498 3.10375 4.54939 4.54934C3.10379 5.99494 2.29167 7.95558 2.29167 9.99996C2.29167 12.0443 3.10379 14.005 4.54939 15.4506C5.99498 16.8962 7.95562 17.7083 10 17.7083C12.0444 17.7083 14.005 16.8962 15.4506 15.4506C16.8962 14.005 17.7083 12.0443 17.7083 9.99996C17.7083 7.95558 16.8962 5.99494 15.4506 4.54934C14.005 3.10375 12.0444 2.29163 10 2.29163ZM1.04167 9.99996C1.04167 5.05246 5.0525 1.04163 10 1.04163C14.9475 1.04163 18.9583 5.05246 18.9583 9.99996C18.9583 14.9475 14.9475 18.9583 10 18.9583C5.0525 18.9583 1.04167 14.9475 1.04167 9.99996Z" fill="white" stroke="white" stroke-width="0.3"/>
<path fill-rule="evenodd" clip-rule="evenodd" d="M9.16917 5.42241C9.2781 5.5473 9.33297 5.71033 9.32171 5.87567C9.31046 6.041 9.23401 6.1951 9.10917 6.30408L7.5 7.70824H14.1667C14.3324 7.70824 14.4914 7.77409 14.6086 7.8913C14.7258 8.00851 14.7917 8.16748 14.7917 8.33324C14.7917 8.499 14.7258 8.65797 14.6086 8.77519C14.4914 8.8924 14.3324 8.95824 14.1667 8.95824H5.83333C5.70613 8.9582 5.58197 8.91935 5.47743 8.84688C5.37289 8.7744 5.29296 8.67176 5.2483 8.55265C5.20365 8.43354 5.1964 8.30364 5.22753 8.1803C5.25865 8.05697 5.32667 7.94606 5.4225 7.86241L8.28667 5.36241C8.34853 5.30835 8.42044 5.26701 8.49828 5.24076C8.57613 5.21452 8.65839 5.20387 8.74036 5.20945C8.82232 5.21502 8.90238 5.2367 8.97596 5.27324C9.04954 5.30978 9.1152 5.36047 9.16917 5.42241ZM14.7517 11.4474C14.7071 11.3283 14.6271 11.2256 14.5226 11.153C14.4181 11.0805 14.2939 11.0416 14.1667 11.0416H5.83333C5.66757 11.0416 5.5086 11.1074 5.39139 11.2246C5.27418 11.3418 5.20833 11.5008 5.20833 11.6666C5.20833 11.8323 5.27418 11.9913 5.39139 12.1085C5.5086 12.2257 5.66757 12.2916 5.83333 12.2916H12.5L10.8917 13.6957C10.7706 13.8057 10.6975 13.9588 10.688 14.1222C10.6785 14.2855 10.7335 14.446 10.841 14.5693C10.9486 14.6925 11.1002 14.7687 11.2633 14.7814C11.4264 14.7942 11.5879 14.7425 11.7133 14.6374L14.5775 12.1374C14.6734 12.0539 14.7416 11.9431 14.7728 11.8198C14.8041 11.6965 14.7962 11.5666 14.7517 11.4474Z" fill="white" stroke="white" stroke-width="0.3"/>
</svg>
