<svg width="118" height="118" viewBox="0 0 118 118" fill="none" xmlns="http://www.w3.org/2000/svg">
<rect x="9" y="9" width="100" height="100" rx="50" fill="#00265C"/>
<rect x="4.5" y="4.5" width="109" height="109" rx="54.5" stroke="#00569B" stroke-opacity="0.49" stroke-width="9"/>
<path d="M49.333 68.6667L58.9997 59M58.9997 59L68.6663 68.6667M58.9997 59V80.75M78.333 70.4619C81.285 68.0239 83.1663 64.3358 83.1663 60.2083C83.1663 52.8675 77.2155 46.9167 69.8747 46.9167C69.3466 46.9167 68.8526 46.6412 68.5845 46.1862C65.433 40.8384 59.6145 37.25 52.958 37.25C42.9478 37.25 34.833 45.3648 34.833 55.375C34.833 60.3681 36.852 64.8896 40.1181 68.1677" stroke="white" stroke-width="3" stroke-linecap="round" stroke-linejoin="round"/>
</svg>
