<svg width="19" height="19" viewBox="0 0 19 19" fill="none" xmlns="http://www.w3.org/2000/svg">
<path d="M13.9147 16.1555C15.4754 15.1219 16.6239 13.5735 17.16 11.78C17.6961 9.98652 17.5858 8.06177 16.8483 6.34127C16.1108 4.62077 14.793 3.21364 13.1244 2.36517C11.4558 1.5167 9.54243 1.2807 7.71771 1.6983M13.9147 16.1555V13.0468M13.9147 16.1555H17.0438M5.05312 2.84674C3.49781 3.88407 2.35526 5.43372 1.82417 7.2262C1.29309 9.01869 1.40705 10.9406 2.14625 12.6578C2.88545 14.3749 4.20313 15.7787 5.87013 16.625C7.53714 17.4712 9.44803 17.7064 11.2705 17.2897M5.05312 2.84674V5.94122M5.05312 2.84674H1.94444" stroke="white" stroke-width="1.5" stroke-linecap="round" stroke-linejoin="round"/>
<path d="M5.5 9.64941L7.5 11.6494L12.5 6.64941" stroke="white" stroke-width="1.5" stroke-linecap="round" stroke-linejoin="round"/>
</svg>
