<svg width="101" height="100" viewBox="0 0 101 100" fill="none" xmlns="http://www.w3.org/2000/svg">
<rect x="13" y="12.5" width="75" height="75" rx="37.5" stroke="white" stroke-opacity="0.25" stroke-width="25"/>
<path d="M15.1447 85.3553C20.9589 91.1696 28.1173 95.4601 35.9858 97.847C43.8543 100.234 52.19 100.643 60.2545 99.0393C68.3191 97.4351 75.8635 93.8669 82.2197 88.6505C88.5758 83.4342 93.5473 76.7308 96.694 69.1342C99.8406 61.5375 101.065 53.2821 100.259 45.0991C99.4533 36.9162 96.6417 29.0583 92.0735 22.2215C87.5053 15.3847 81.3215 9.78002 74.0698 5.90394C66.8182 2.02786 58.7226 6.20785e-07 50.5 0L50.5 24.8943C54.6287 24.8943 58.6936 25.9125 62.3347 27.8588C65.9759 29.805 69.0809 32.6192 71.3746 36.052C73.6684 39.4849 75.0801 43.4304 75.4848 47.5392C75.8895 51.648 75.2746 55.7932 73.6946 59.6075C72.1147 63.4219 69.6184 66.7878 66.4269 69.407C63.2354 72.0261 59.4472 73.8178 55.3979 74.6233C51.3486 75.4287 47.1631 75.2231 43.2122 74.0246C39.2613 72.8262 35.667 70.6718 32.7476 67.7524L15.1447 85.3553Z" fill="#FF474E"/>
</svg>
