<svg width="17" height="17" viewBox="0 0 17 17" fill="none" xmlns="http://www.w3.org/2000/svg">
<path d="M8.50233 16.5425C12.893 16.5425 16.5425 12.9008 16.5425 8.50233C16.5425 4.11161 12.885 0.462158 8.49426 0.462158C4.09615 0.462158 0.4625 4.11161 0.4625 8.50233C0.4625 12.9008 4.10388 16.5425 8.50233 16.5425ZM8.50267 15.2026C4.78158 15.2026 1.80948 12.2227 1.80948 8.50233C1.80948 4.78931 4.7735 1.80207 8.49426 1.80207C12.2069 1.80207 15.1942 4.78964 15.2022 8.50233C15.21 12.2231 12.2147 15.2026 8.502 15.2026M6.08214 4.63191C5.10445 4.63191 4.59223 5.13639 4.59223 6.11375V7.15434C4.59223 7.50109 4.82093 7.72979 5.15961 7.72979C5.49828 7.72979 5.72732 7.50916 5.72732 7.15468V6.30277C5.72732 5.93214 5.89279 5.76666 6.25535 5.76666H7.13047C7.47722 5.76666 7.70558 5.53796 7.70558 5.19929C7.70558 4.86061 7.47722 4.63157 7.13047 4.63157L6.08214 4.63191ZM10.859 4.63191H9.81063C9.47196 4.63191 9.23552 4.86061 9.23552 5.19962C9.23552 5.53864 9.47196 5.767 9.81063 5.767H10.6938C11.0483 5.767 11.2219 5.93247 11.2219 6.3031V7.15434C11.2219 7.50916 11.4425 7.72979 11.7815 7.72979C12.1282 7.72979 12.3566 7.50109 12.3566 7.15468V6.11375C12.3566 5.13639 11.8363 4.63191 10.859 4.63191ZM6.08248 12.3963H7.1308C7.47755 12.3963 7.70592 12.1676 7.70592 11.8289C7.70592 11.4902 7.47755 11.2612 7.1308 11.2612H6.25569C5.89313 11.2612 5.72766 11.0957 5.72766 10.7251V9.87419C5.72766 9.51903 5.49896 9.29841 5.15994 9.29841C4.82126 9.29841 4.59256 9.52711 4.59256 9.87386V10.9144C4.59256 11.8918 5.10478 12.3963 6.08248 12.3963ZM10.8593 12.3963C11.8367 12.3963 12.3569 11.8918 12.3569 10.9144V9.87386C12.3569 9.52711 12.1282 9.29874 11.7815 9.29874C11.4425 9.29874 11.2219 9.51903 11.2219 9.87386V10.7251C11.2219 11.0957 11.0483 11.2612 10.6938 11.2612H9.81063C9.47162 11.2612 9.23518 11.4899 9.23518 11.8289C9.23518 12.1676 9.47162 12.3963 9.8103 12.3963H10.8593Z" fill="white"/>
<path d="M8.50267 15.2026C4.78158 15.2026 1.80948 12.2227 1.80948 8.50233C1.80948 4.78931 4.7735 1.80207 8.49426 1.80207C12.2069 1.80207 15.1942 4.78964 15.2022 8.50233C15.21 12.2231 12.2147 15.2026 8.502 15.2026M8.50233 16.5425C12.893 16.5425 16.5425 12.9008 16.5425 8.50233C16.5425 4.11161 12.885 0.462158 8.49426 0.462158C4.09615 0.462158 0.4625 4.11161 0.4625 8.50233C0.4625 12.9008 4.10388 16.5425 8.50233 16.5425ZM6.08214 4.63191C5.10445 4.63191 4.59223 5.13639 4.59223 6.11375V7.15434C4.59223 7.50109 4.82093 7.72979 5.15961 7.72979C5.49828 7.72979 5.72732 7.50916 5.72732 7.15467V6.30277C5.72732 5.93214 5.89279 5.76666 6.25535 5.76666H7.13047C7.47722 5.76666 7.70558 5.53796 7.70558 5.19929C7.70558 4.86061 7.47722 4.63157 7.13047 4.63157L6.08214 4.63191ZM10.859 4.63191H9.81063C9.47196 4.63191 9.23552 4.86061 9.23552 5.19962C9.23552 5.53864 9.47196 5.767 9.81063 5.767H10.6938C11.0483 5.767 11.2219 5.93247 11.2219 6.3031V7.15434C11.2219 7.50916 11.4425 7.72979 11.7815 7.72979C12.1282 7.72979 12.3566 7.50109 12.3566 7.15467V6.11375C12.3566 5.13639 11.8363 4.63191 10.859 4.63191ZM6.08248 12.3963H7.1308C7.47755 12.3963 7.70592 12.1676 7.70592 11.8289C7.70592 11.4902 7.47755 11.2612 7.1308 11.2612H6.25569C5.89313 11.2612 5.72766 11.0957 5.72766 10.7251V9.87419C5.72766 9.51903 5.49896 9.29841 5.15994 9.29841C4.82126 9.29841 4.59256 9.52711 4.59256 9.87386V10.9144C4.59256 11.8918 5.10478 12.3963 6.08248 12.3963ZM10.8593 12.3963C11.8367 12.3963 12.3569 11.8918 12.3569 10.9144V9.87386C12.3569 9.52711 12.1282 9.29874 11.7815 9.29874C11.4425 9.29874 11.2219 9.51903 11.2219 9.87386V10.7251C11.2219 11.0957 11.0483 11.2612 10.6938 11.2612H9.81063C9.47162 11.2612 9.23518 11.4899 9.23518 11.8289C9.23518 12.1676 9.47162 12.3963 9.8103 12.3963H10.8593Z" stroke="white" stroke-width="0.2"/>
</svg>
