<svg width="1440" height="1024" viewBox="0 0 1440 1024" fill="none" xmlns="http://www.w3.org/2000/svg">
<g opacity="0.2">
<mask id="mask0_52_72" style="mask-type:alpha" maskUnits="userSpaceOnUse" x="0" y="0" width="1440" height="1024">
<rect width="1440" height="1024" fill="url(#paint0_radial_52_72)"/>
</mask>
<g mask="url(#mask0_52_72)">
<g clip-path="url(#clip0_52_72)">
<g clip-path="url(#clip1_52_72)">
<line x1="72.5" x2="72.5" y2="1440" stroke="white"/>
<line x1="144.5" x2="144.5" y2="1440" stroke="white"/>
<line x1="216.5" x2="216.5" y2="1440" stroke="white"/>
<line x1="288.5" x2="288.5" y2="1440" stroke="white"/>
<line x1="360.5" x2="360.5" y2="1440" stroke="white"/>
<line x1="432.5" x2="432.5" y2="1440" stroke="white"/>
<line x1="504.5" x2="504.5" y2="1440" stroke="white"/>
<line x1="576.5" x2="576.5" y2="1440" stroke="white"/>
<line x1="648.5" x2="648.5" y2="1440" stroke="white"/>
<line x1="720.5" x2="720.5" y2="1440" stroke="white"/>
<line x1="792.5" x2="792.5" y2="1440" stroke="white"/>
<line x1="864.5" x2="864.5" y2="1440" stroke="white"/>
<line x1="936.5" x2="936.5" y2="1440" stroke="white"/>
<line x1="1008.5" x2="1008.5" y2="1440" stroke="white"/>
<line x1="1080.5" x2="1080.5" y2="1440" stroke="white"/>
<line x1="1152.5" x2="1152.5" y2="1440" stroke="white"/>
<line x1="1224.5" x2="1224.5" y2="1440" stroke="white"/>
<line x1="1296.5" x2="1296.5" y2="1440" stroke="white"/>
<line x1="1368.5" x2="1368.5" y2="1440" stroke="white"/>
</g>
<g clip-path="url(#clip2_52_72)">
<line y1="71.5" x2="1920" y2="71.5" stroke="white"/>
<line y1="143.5" x2="1920" y2="143.5" stroke="white"/>
<line y1="215.5" x2="1920" y2="215.5" stroke="white"/>
<line y1="287.5" x2="1920" y2="287.5" stroke="white"/>
<line y1="359.5" x2="1920" y2="359.5" stroke="white"/>
<line y1="431.5" x2="1920" y2="431.5" stroke="white"/>
<line y1="503.5" x2="1920" y2="503.5" stroke="white"/>
<line y1="575.5" x2="1920" y2="575.5" stroke="white"/>
<line y1="647.5" x2="1920" y2="647.5" stroke="white"/>
<line y1="719.5" x2="1920" y2="719.5" stroke="white"/>
<line y1="791.5" x2="1920" y2="791.5" stroke="white"/>
<line y1="863.5" x2="1920" y2="863.5" stroke="white"/>
<line y1="935.5" x2="1920" y2="935.5" stroke="white"/>
<rect x="174.885" y="1336.56" width="217.324" height="217.324" transform="rotate(-135 174.885 1336.56)" stroke="#3044F8" stroke-width="30"/>
</g>
</g>
</g>
</g>
<defs>
<radialGradient id="paint0_radial_52_72" cx="0" cy="0" r="1" gradientUnits="userSpaceOnUse" gradientTransform="translate(694.5 370.489) rotate(82.1595) scale(483.812 788.647)">
<stop stop-color="white"/>
<stop offset="0.997794" stop-opacity="0"/>
</radialGradient>
<clipPath id="clip0_52_72">
<rect width="1440" height="1024" fill="white"/>
</clipPath>
<clipPath id="clip1_52_72">
<rect width="1440" height="1440" fill="white"/>
</clipPath>
<clipPath id="clip2_52_72">
<rect width="1920" height="1627.02" fill="white"/>
</clipPath>
</defs>
</svg>
