<svg width="32" height="18" viewBox="0 0 32 18" fill="none" xmlns="http://www.w3.org/2000/svg">
<path d="M15.0625 0.5625C15.5803 0.5625 16 0.982233 16 1.5C16 2.01777 15.5803 2.4375 15.0625 2.4375H1.9375C1.41973 2.4375 1 2.01777 1 1.5C1 0.982233 1.41973 0.5625 1.9375 0.5625H15.0625ZM1 9C1 8.48223 1.41973 8.0625 1.9375 8.0625H30.0625C30.5803 8.0625 31 8.48223 31 9C31 9.51777 30.5803 9.9375 30.0625 9.9375H1.9375C1.41973 9.9375 1 9.51777 1 9ZM16.9375 17.4375C16.4197 17.4375 16 17.0178 16 16.5C16 15.9822 16.4197 15.5625 16.9375 15.5625H30.0625C30.5803 15.5625 31 15.9822 31 16.5C31 17.0178 30.5803 17.4375 30.0625 17.4375H16.9375Z" fill="white" stroke="white" stroke-width="0.7"/>
</svg>
