<svg width="16" height="18" viewBox="0 0 16 18" fill="none" xmlns="http://www.w3.org/2000/svg">
<path d="M7.39654 1.2707C7.72716 1.42102 8.02802 1.6296 8.28476 1.88649L13.4463 7.04973C13.7057 7.30919 13.9133 7.6093 14.0612 7.93708M7.39654 1.2707C7.0032 1.09215 6.57619 0.999844 6.14422 1H4.02703C3.22421 1 2.45427 1.31892 1.8866 1.8866C1.31892 2.45427 1 3.22421 1 4.02703V13.973C1 14.7758 1.31892 15.5457 1.8866 16.1134C2.45427 16.6811 3.22421 17 4.02703 17H11.3057C12.1085 17 12.8785 16.6811 13.4462 16.1134C14.0138 15.5457 14.3328 14.7758 14.3328 13.973V9.19027C14.3328 8.75351 14.2385 8.32714 14.0612 7.93708M7.39654 1.2707V6.20649C7.39654 6.66524 7.57878 7.1052 7.90317 7.42959C8.22755 7.75398 8.66752 7.93622 9.12627 7.93622L14.0612 7.93708" stroke="white" stroke-width="1.5" stroke-linecap="round" stroke-linejoin="round"/>
</svg>
