<svg width="17" height="16" viewBox="0 0 17 16" fill="none" xmlns="http://www.w3.org/2000/svg">
<path d="M10.7072 3.04042C10.238 2.56242 9.67861 2.18214 9.06151 1.92153C8.44442 1.66093 7.78181 1.52516 7.11195 1.52208C6.44208 1.51901 5.77825 1.64867 5.15879 1.9036C4.53933 2.15852 3.97651 2.53365 3.50284 3.00732C3.02917 3.48099 2.65404 4.04381 2.39912 4.66327C2.14419 5.28273 2.01453 5.94657 2.0176 6.61643C2.02068 7.28629 2.15644 7.9489 2.41705 8.56599C2.67766 9.18309 3.05794 9.74244 3.53594 10.2117C4.4899 11.1483 5.77509 11.6703 7.11195 11.6642C8.4488 11.658 9.72914 11.1242 10.6744 10.1789C11.6198 9.23362 12.1535 7.95328 12.1597 6.61643C12.1658 5.27957 11.6438 3.99438 10.7072 3.04042ZM2.43278 1.93727C3.62864 0.741706 5.23605 0.0481467 6.92631 -0.00158431C8.61656 -0.0513153 10.262 0.546539 11.526 1.66972C12.7901 2.79291 13.5774 4.35656 13.7268 6.04093C13.8763 7.7253 13.3766 9.40314 12.33 10.7313L16.5 14.9013L15.3968 16.0045L11.2268 11.8345C9.89822 12.8772 8.22183 13.3738 6.53964 13.2229C4.85745 13.072 3.2962 12.285 2.17438 11.0224C1.05255 9.75986 0.454664 8.11688 0.502684 6.42862C0.550703 4.74035 1.24101 3.13401 2.43278 1.93727Z" fill="white"/>
</svg>
