<svg width="18" height="18" viewBox="0 0 18 18" fill="none" xmlns="http://www.w3.org/2000/svg">
<mask id="path-1-inside-1_43_645" fill="white">
<path d="M9 13.1494L9 8.34941L9 13.1494Z"/>
</mask>
<path d="M8 13.1494C8 13.7017 8.44772 14.1494 9 14.1494C9.55228 14.1494 10 13.7017 10 13.1494L8 13.1494ZM10 8.34941C10 7.79713 9.55229 7.34941 9 7.34941C8.44772 7.34941 8 7.79713 8 8.34941L10 8.34941ZM10 13.1494L10 8.34941L8 8.34941L8 13.1494L10 13.1494Z" fill="white" mask="url(#path-1-inside-1_43_645)"/>
<path d="M9 5.14939C8.55817 5.14939 8.2 5.50756 8.2 5.94939C8.2 6.39122 8.55817 6.74939 9 6.74939C9.44183 6.74939 9.8 6.39122 9.8 5.94939C9.8 5.50756 9.44183 5.14939 9 5.14939Z" stroke="white"/>
<path d="M13 16.079C11.7844 16.7824 10.4044 17.1517 9 17.1494C4.5816 17.1494 1 13.5678 1 9.1494C1 4.731 4.5816 1.1494 9 1.1494C13.4184 1.1494 17 4.731 17 9.1494C17 10.6062 16.6104 11.9734 15.9296 13.1494" stroke="white" stroke-width="1.5" stroke-linecap="round"/>
</svg>
