<svg width="17" height="18" viewBox="0 0 17 18" fill="none" xmlns="http://www.w3.org/2000/svg">
<path d="M14.2558 4.36665L7.87667 10.7458C8.06611 11.0175 8.22584 11.3086 8.35584 11.6192L9.9475 15.4517L14.2558 4.36665ZM6.75417 9.62332L13.1342 3.24332L2.04834 7.55165L5.88084 9.14415C6.18849 9.27167 6.48133 9.43234 6.75417 9.62332ZM16.4358 3.07165L11.4133 15.9933C11.0967 16.81 10.1825 17.2292 9.3725 16.93C9.17517 16.8571 8.99505 16.7442 8.84346 16.5984C8.69187 16.4525 8.5721 16.2769 8.49167 16.0825L6.9 12.25C6.59046 11.503 5.99697 10.9095 5.25 10.6L1.41667 9.00832C0.62167 8.67749 0.258336 7.75832 0.60667 6.95332C0.692081 6.75662 0.815579 6.57877 0.970045 6.43003C1.12451 6.28128 1.30689 6.16458 1.50667 6.08665L14.4283 1.06249C14.7091 0.949339 15.017 0.92126 15.3136 0.981744C15.6102 1.04223 15.8825 1.1886 16.0965 1.40266C16.3106 1.61671 16.4569 1.88898 16.5174 2.18559C16.5779 2.4822 16.5498 2.79005 16.4367 3.07082L16.4358 3.07165Z" fill="white"/>
</svg>
