<svg width="18" height="18" viewBox="0 0 18 18" fill="none" xmlns="http://www.w3.org/2000/svg">
<path d="M9 17.0021C10.7093 17.0021 12.095 13.4213 12.095 9.0041C12.095 4.58693 10.7093 1.0061 9 1.0061C7.29068 1.0061 5.905 4.58693 5.905 9.0041C5.905 13.4213 7.29068 17.0021 9 17.0021Z" stroke="white" stroke-width="1.4"/>
<path d="M9 16.998C13.4183 16.998 17 13.4163 17 8.99805C17 4.57977 13.4183 0.998047 9 0.998047C4.58172 0.998047 1 4.57977 1 8.99805C1 13.4163 4.58172 16.998 9 16.998Z" stroke="white" stroke-width="1.4"/>
<path d="M1 8.99304L17 9.00304" stroke="white" stroke-width="1.4" stroke-linecap="round" stroke-linejoin="round"/>
<rect x="1.89016" y="14.2882" width="17.2214" height="3" transform="rotate(-48.3767 1.89016 14.2882)" fill="#ED1C24"/>
</svg>
