<svg width="18" height="18" viewBox="0 0 18 18" fill="none" xmlns="http://www.w3.org/2000/svg">
<path d="M3.06399 6.2858L1 6.1634C2.47919 2.36343 6.72636 0.200241 10.8663 1.27543C15.2767 2.42182 17.8967 6.80979 16.7175 11.0754C15.7423 14.6041 12.4743 16.9449 8.87754 17.0001" stroke="white" stroke-width="1.5" stroke-linecap="round" stroke-linejoin="round"/>
<path d="M8.99994 17.0001C4.59997 17.0001 1 13.0002 1 8.20021M10.2831 7.17781C10.0015 6.88182 9.31274 6.18822 8.22315 6.68182C7.13436 7.17381 6.96156 8.7586 8.60875 8.9274C9.35274 9.0034 9.83834 8.8394 10.2831 9.3034C10.7279 9.76899 10.8103 11.0618 9.67434 11.4106C8.53835 11.7594 7.80155 11.1834 7.60395 11.0034M8.92634 5.81622V6.44822M8.92634 11.5178V12.2162" stroke="white" stroke-width="1.5" stroke-linecap="round" stroke-linejoin="round"/>
<rect x="1.85671" y="14.2167" width="17.4357" height="3" transform="rotate(-48.3767 1.85671 14.2167)" fill="#ED1C24"/>
</svg>
