<svg width="18" height="16" viewBox="0 0 18 16" fill="none" xmlns="http://www.w3.org/2000/svg">
<path d="M17 7.99998C17 4.98318 17 3.47438 16.0624 2.53758C15.1248 1.60078 13.6168 1.59998 10.6 1.59998H7.4C4.3832 1.59998 2.8744 1.59998 1.9376 2.53758C1.0008 3.47518 1 4.98318 1 7.99998C1 11.0168 1 12.5256 1.9376 13.4624C2.8752 14.3992 4.3832 14.4 7.4 14.4H10.6C13.6168 14.4 15.1256 14.4 16.0624 13.4624C16.5856 12.94 16.8168 12.24 16.9184 11.2M7.4 11.2H4.2M10.6 11.2H9.4M1 6.39998H5M17 6.39998H8.2" stroke="white" stroke-width="1.4" stroke-linecap="round"/>
</svg>
