<svg width="18" height="18" viewBox="0 0 18 18" fill="none" xmlns="http://www.w3.org/2000/svg">
<path d="M16.5945 5.00742L16.1892 4.30426C15.8832 3.77257 15.7297 3.50673 15.4696 3.40171C15.2087 3.29504 14.9142 3.37873 14.325 3.54612L13.324 3.82755C12.9474 3.91452 12.5528 3.86529 12.209 3.68888L11.9325 3.52971C11.6377 3.34071 11.4112 3.0624 11.2859 2.73546L11.0119 1.91743C10.8314 1.3759 10.7411 1.10513 10.5278 0.949237C10.312 0.794983 10.0264 0.794983 9.45702 0.794983H8.54298C7.97274 0.794983 7.68802 0.794983 7.47387 0.950057C7.2589 1.10513 7.16947 1.3759 6.98896 1.91743L6.71491 2.73546C6.58964 3.0624 6.36309 3.34071 6.06836 3.52971L5.79185 3.68888C5.44816 3.86516 5.05331 3.91455 4.67679 3.82837L3.67578 3.54612C3.08667 3.37873 2.79211 3.29504 2.53119 3.40089C2.27109 3.50755 2.11766 3.77257 1.81161 4.30426L1.40628 5.00742C1.11911 5.50547 0.975522 5.75408 1.00424 6.01992C1.03132 6.28494 1.22331 6.49827 1.60813 6.92575L2.45324 7.87179C2.66083 8.13352 2.8077 8.58972 2.8077 8.99997C2.8077 9.41022 2.66001 9.86642 2.45406 10.1282L1.60813 11.0742C1.22331 11.5009 1.03132 11.715 1.00342 11.98C0.975522 12.245 1.11911 12.4945 1.40628 12.9925L1.81161 13.6957C2.11766 14.2274 2.27109 14.4932 2.53119 14.5982C2.79211 14.7049 3.08667 14.6212 3.67578 14.4538L4.67679 14.1724C5.05422 14.0854 5.44806 14.1347 5.79267 14.3111L6.06836 14.4702C6.36292 14.659 6.58937 14.9379 6.71491 15.2645L6.98896 16.0825C7.16947 16.624 7.25972 16.8948 7.47305 17.0507C7.68802 17.205 7.97356 17.205 8.54298 17.205H9.45702C10.0273 17.205 10.312 17.205 10.5261 17.0499C10.7411 16.8948 10.8314 16.6249 11.011 16.0833L11.2851 15.2645C11.4106 14.9371 11.6371 14.659 11.9316 14.4702L12.2081 14.3111C12.5518 14.1348 12.9467 14.0854 13.3232 14.1716L14.3242 14.4538C14.9133 14.6212 15.2079 14.7049 15.4688 14.5991C15.7289 14.4924 15.8823 14.2274 16.1884 13.6957L16.5937 12.9925C16.8809 12.4945 17.0245 12.2459 16.9958 11.98C16.9687 11.715 16.7767 11.5017 16.3919 11.0742L15.5468 10.1282C15.3392 9.8656 15.1923 9.41022 15.1923 8.99997C15.1923 8.58972 15.34 8.13352 15.5459 7.87179L16.3919 6.92575C16.7767 6.49909 16.9687 6.28494 16.9966 6.01992C17.0245 5.7549 16.8817 5.50547 16.5945 5.00742Z" stroke="white" stroke-width="1.5" stroke-linecap="round" stroke-linejoin="round"/>
<path d="M10.6926 8.58972L11.1029 8.17947C11.4647 7.81763 11.6461 7.6363 11.8832 7.71179C12.1211 7.78645 12.1589 8.00142 12.2335 8.43136C12.2664 8.61625 12.2828 8.80579 12.2828 8.99997C12.283 9.53752 12.1512 10.0669 11.899 10.5416C11.6467 11.0163 11.2817 11.4218 10.8361 11.7224C10.3905 12.023 9.8778 12.2095 9.34318 12.2656C8.80856 12.3217 8.26835 12.2456 7.77002 12.044M7.35977 9.43894L6.91342 9.88529C6.55732 10.2414 6.37845 10.4203 6.14379 10.3489C5.90831 10.2775 5.86646 10.0666 5.78277 9.6457C5.66602 9.06472 5.70875 8.46297 5.90642 7.90432C6.1041 7.34566 6.44934 6.85095 6.90551 6.47269C7.36167 6.09443 7.91174 5.84673 8.49734 5.75589C9.08293 5.66505 9.68219 5.73446 10.2315 5.95674" stroke="white" stroke-width="1.5" stroke-linecap="round" stroke-linejoin="round"/>
</svg>
