<svg width="16" height="20" viewBox="0 0 16 20" fill="none" xmlns="http://www.w3.org/2000/svg">
<path d="M8.41699 1.51721H8.64449C11.3612 1.51721 12.7212 1.51721 13.6645 2.18221C13.9345 2.37221 14.1745 2.59888 14.377 2.85304C15.0837 3.74138 15.0837 5.01971 15.0837 7.57804V9.69888C15.0837 12.168 15.0837 13.403 14.6928 14.3889C14.0645 15.9747 12.7362 17.2247 11.0512 17.8164C10.0037 18.1839 8.69283 18.1839 6.06783 18.1839C4.56949 18.1839 3.81949 18.1839 3.22116 17.9739C2.25866 17.6355 1.49949 16.9214 1.14033 16.0155C0.916992 15.4522 0.916992 14.7464 0.916992 13.3355V9.85054" stroke="white" stroke-width="1.7" stroke-linecap="round" stroke-linejoin="round"/>
<path d="M15.0833 9.85054C15.0833 10.5872 14.7907 11.2937 14.2698 11.8145C13.7489 12.3354 13.0425 12.628 12.3058 12.628C11.7508 12.628 11.0967 12.5314 10.5575 12.6755C10.322 12.7389 10.1073 12.863 9.93486 13.0354C9.76243 13.2078 9.63833 13.4226 9.575 13.658C9.43083 14.1972 9.5275 14.8514 9.5275 15.4064C9.5275 15.7711 9.45566 16.1323 9.31607 16.4693C9.17649 16.8063 8.9719 17.1125 8.71399 17.3704C8.45607 17.6283 8.14988 17.8329 7.8129 17.9725C7.47592 18.112 7.11475 18.1839 6.75 18.1839M1.75 3.60054C2.16 3.17888 3.25 1.51721 3.83333 1.51721M3.83333 1.51721C4.41667 1.51721 5.50667 3.17888 5.91667 3.60054M3.83333 1.51721V8.18388" stroke="white" stroke-width="1.7" stroke-linecap="round" stroke-linejoin="round"/>
</svg>
